<svg width="48" height="48" viewBox="0 0 48 48" fill="none" xmlns="http://www.w3.org/2000/svg">
  <!-- Background circle -->
  <circle cx="24" cy="24" r="22" fill="url(#gradient)" stroke="#0078d4" stroke-width="2"/>
  
  <!-- First file -->
  <rect x="12" y="14" width="12" height="16" rx="2" fill="#ffffff" stroke="#0078d4" stroke-width="1.5"/>
  <rect x="14" y="16" width="8" height="1" rx="0.5" fill="#0078d4"/>
  <rect x="14" y="18" width="6" height="1" rx="0.5" fill="#0078d4"/>
  <rect x="14" y="20" width="7" height="1" rx="0.5" fill="#0078d4"/>
  <rect x="14" y="22" width="5" height="1" rx="0.5" fill="#0078d4"/>
  <rect x="14" y="24" width="8" height="1" rx="0.5" fill="#0078d4"/>
  <rect x="14" y="26" width="6" height="1" rx="0.5" fill="#0078d4"/>
  
  <!-- Second file (duplicate) -->
  <rect x="24" y="18" width="12" height="16" rx="2" fill="#ffffff" stroke="#0078d4" stroke-width="1.5"/>
  <rect x="26" y="20" width="8" height="1" rx="0.5" fill="#0078d4"/>
  <rect x="26" y="22" width="6" height="1" rx="0.5" fill="#0078d4"/>
  <rect x="26" y="24" width="7" height="1" rx="0.5" fill="#0078d4"/>
  <rect x="26" y="26" width="5" height="1" rx="0.5" fill="#0078d4"/>
  <rect x="26" y="28" width="8" height="1" rx="0.5" fill="#0078d4"/>
  <rect x="26" y="30" width="6" height="1" rx="0.5" fill="#0078d4"/>
  
  <!-- Connection line between files -->
  <path d="M24 22 L24 26" stroke="#0078d4" stroke-width="2" stroke-linecap="round"/>
  
  <!-- Magnifying glass for search -->
  <circle cx="20" cy="20" r="3" fill="none" stroke="#0078d4" stroke-width="2"/>
  <path d="M22.5 22.5 L25 25" stroke="#0078d4" stroke-width="2" stroke-linecap="round"/>
  
  <!-- AI/ML dots -->
  <circle cx="16" cy="34" r="1.5" fill="#0078d4"/>
  <circle cx="19" cy="34" r="1.5" fill="#0078d4"/>
  <circle cx="22" cy="34" r="1.5" fill="#0078d4"/>
  
  <!-- Gradient definition -->
  <defs>
    <linearGradient id="gradient" x1="0%" y1="0%" x2="100%" y2="100%">
      <stop offset="0%" style="stop-color:#f0f8ff;stop-opacity:1" />
      <stop offset="100%" style="stop-color:#e6f3ff;stop-opacity:1" />
    </linearGradient>
  </defs>
</svg>