<svg width="192" height="192" viewBox="0 0 192 192" fill="none" xmlns="http://www.w3.org/2000/svg">
  <!-- Background circle -->
  <circle cx="96" cy="96" r="88" fill="url(#gradient)" stroke="#0078d4" stroke-width="8"/>
  
  <!-- First file -->
  <rect x="48" y="56" width="48" height="64" rx="8" fill="#ffffff" stroke="#0078d4" stroke-width="6"/>
  <rect x="56" y="64" width="32" height="4" rx="2" fill="#0078d4"/>
  <rect x="56" y="72" width="24" height="4" rx="2" fill="#0078d4"/>
  <rect x="56" y="80" width="28" height="4" rx="2" fill="#0078d4"/>
  <rect x="56" y="88" width="20" height="4" rx="2" fill="#0078d4"/>
  <rect x="56" y="96" width="32" height="4" rx="2" fill="#0078d4"/>
  <rect x="56" y="104" width="24" height="4" rx="2" fill="#0078d4"/>
  
  <!-- Second file (duplicate) -->
  <rect x="96" y="72" width="48" height="64" rx="8" fill="#ffffff" stroke="#0078d4" stroke-width="6"/>
  <rect x="104" y="80" width="32" height="4" rx="2" fill="#0078d4"/>
  <rect x="104" y="88" width="24" height="4" rx="2" fill="#0078d4"/>
  <rect x="104" y="96" width="28" height="4" rx="2" fill="#0078d4"/>
  <rect x="104" y="104" width="20" height="4" rx="2" fill="#0078d4"/>
  <rect x="104" y="112" width="32" height="4" rx="2" fill="#0078d4"/>
  <rect x="104" y="120" width="24" height="4" rx="2" fill="#0078d4"/>
  
  <!-- Connection line between files -->
  <path d="M96 88 L96 104" stroke="#0078d4" stroke-width="8" stroke-linecap="round"/>
  
  <!-- Magnifying glass for search -->
  <circle cx="80" cy="80" r="12" fill="none" stroke="#0078d4" stroke-width="8"/>
  <path d="M90 90 L100 100" stroke="#0078d4" stroke-width="8" stroke-linecap="round"/>
  
  <!-- AI/ML dots -->
  <circle cx="64" cy="136" r="6" fill="#0078d4"/>
  <circle cx="76" cy="136" r="6" fill="#0078d4"/>
  <circle cx="88" cy="136" r="6" fill="#0078d4"/>
  
  <!-- Gradient definition -->
  <defs>
    <linearGradient id="gradient" x1="0%" y1="0%" x2="100%" y2="100%">
      <stop offset="0%" style="stop-color:#f0f8ff;stop-opacity:1" />
      <stop offset="100%" style="stop-color:#e6f3ff;stop-opacity:1" />
    </linearGradient>
  </defs>
</svg> 